<svg xmlns="http://www.w3.org/2000/svg" viewBox="0 0 24 24" id="wpgb-icon">
  <path fill-rule="evenodd" clip-rule="evenodd" fill="currentColor" d="M22.435,10.436c-0.085-0.375-0.317-0.723-0.584-0.868c-0.085-0.046-0.611-0.103-1.174-0.127 c-0.94-0.042-1.045-0.061-1.345-0.234c-0.475-0.277-0.6-0.577-0.605-1.383c-0.005-1.548-0.646-2.987-1.918-4.281 c-0.905-0.923-1.916-1.547-3.071-1.898c-0.276-0.084-0.895-0.113-2.966-0.136C7.516,1.472,6.794,1.537,5.688,1.978 c-2.04,0.806-3.503,2.523-4.037,4.717c-0.098,0.412-0.122,1.073-0.146,4.871c-0.027,4.76,0.006,5.458,0.301,6.4 c0.731,2.328,2.809,4.048,4.895,4.423c0.694,0.126,9.252,0.155,10.128,0.037c1.523-0.205,2.721-0.82,3.84-1.965 c0.813-0.831,1.315-1.725,1.65-2.912C22.55,16.727,22.53,10.852,22.435,10.436L22.435,10.436z M7.333,7.455 C7.7,7.084,7.802,7.069,10.09,7.069c2.059,0,2.13,0.006,2.429,0.16c0.438,0.22,0.629,0.53,0.629,1.027 c0,0.446-0.178,0.759-0.578,1.014c-0.215,0.136-0.341,0.145-2.358,0.155C8.969,9.434,7.975,9.405,7.83,9.369 C7.052,9.148,6.76,8.032,7.332,7.456L7.333,7.455z M16.327,16.821l-0.699,0.114l-3.634,0.043c-3.192,0.037-4.093-0.02-4.262-0.096 c-0.333-0.146-0.647-0.547-0.698-0.908c-0.052-0.343,0.122-0.81,0.384-1.051c0.333-0.301,0.479-0.31,4.563-0.313 c4.199-0.009,4.178-0.009,4.577,0.364c0.565,0.53,0.442,1.464-0.231,1.85V16.821z"></path>
</svg>
