<svg xmlns="http://www.w3.org/2000/svg" viewBox="0 0 24 24" id="wpgb-icon">
  <path fill="currentColor" d="M23.545 8.944c0.183-0.145 0.455-0.009 0.455 0.22v9.586c0 1.242-1.008 2.25-2.25 2.25h-19.5c-1.242 0-2.25-1.008-2.25-2.25v-9.581c0-0.234 0.267-0.366 0.455-0.22 1.050 0.816 2.442 1.852 7.223 5.325 0.989 0.722 2.658 2.241 4.322 2.231 1.673 0.014 3.375-1.538 4.327-2.231 4.781-3.473 6.169-4.514 7.219-5.33zM12 15c1.087 0.019 2.653-1.369 3.441-1.941 6.22-4.514 6.694-4.908 8.128-6.033 0.272-0.211 0.431-0.539 0.431-0.886v-0.891c0-1.242-1.008-2.25-2.25-2.25h-19.5c-1.242 0-2.25 1.008-2.25 2.25v0.891c0 0.347 0.159 0.67 0.431 0.886 1.434 1.12 1.908 1.519 8.128 6.033 0.787 0.572 2.353 1.959 3.441 1.941z"></path>
</svg>
