<svg xmlns="http://www.w3.org/2000/svg" viewBox="0 0 24 24" id="wpgb-icon">
  <path fill-rule="evenodd" clip-rule="evenodd" fill="currentColor" d="M23.454,5.837c0.165-0.557,0-0.967-0.793-0.967h-2.624c-0.668,0-0.977,0.352-1.141,0.745c0,0-1.337,3.257-3.227,5.368 c-0.609,0.61-0.891,0.806-1.225,0.806c-0.164,0-0.419-0.196-0.419-0.753V5.837c0-0.668-0.187-0.967-0.74-0.967H9.161 c-0.419,0-0.668,0.312-0.668,0.602c0,0.633,0.944,0.78,1.042,2.562v3.867c0,0.847-0.151,1.003-0.485,1.003 c-0.892,0-3.057-3.271-4.34-7.013c-0.259-0.726-0.513-1.02-1.186-1.02H0.9C0.151,4.872,0,5.223,0,5.616 c0,0.695,0.892,4.148,4.148,8.71c2.17,3.115,5.226,4.803,8.006,4.803c1.671,0,1.875-0.375,1.875-1.02 c0-2.977-0.15-3.258,0.687-3.258c0.388,0,1.056,0.195,2.616,1.697c1.782,1.783,2.075,2.58,3.073,2.58h2.624 c0.748,0,1.128-0.375,0.909-1.113c-0.499-1.555-3.872-4.754-4.024-4.969c-0.387-0.499-0.275-0.721,0-1.167 c0.006-0.004,3.208-4.513,3.538-6.041L23.454,5.837z"></path>
</svg>
