<svg xmlns="http://www.w3.org/2000/svg" viewBox="0 0 24 24" id="wpgb-icon">
  <path d="M20.5 3.5C18.2 1.2 15.4 0 12.1 0c-6.4 0-11.8 5.4-11.8 11.9 0 2.1 0.6 4.2 1.7 6L0.1 24l6.3-1.6c1.8 0.9 3.8 1.5 5.7 1.5l0 0 0 0c6.6 0 11.9-5.4 11.9-11.9C24.1 8.7 22.7 5.7 20.5 3.5zM17.9 16.2c-0.3 0.8-1.5 1.4-2 1.4 -0.4 0.1-1.9 0-3.6-0.7 -3-1.4-5-4.4-5.1-4.5 -0.1-0.1-1.2-1.6-1.2-3 0-1.4 0.8-2.2 1.1-2.6 0.6-0.6 1.8-0.4 2.1 0.2 0.2 0.6 0.8 2.1 0.9 2.3 0.1 0.2 0.1 0.8-0.3 1 -0.1 0-0.9 0.6-0.6 1.1 0.2 0.3 0.8 1.2 1.7 2.1 1.2 1 2.1 1.3 2.4 1.5C13.6 15 13.7 15 13.9 14.7c0.1-0.1 0.8-0.9 0.9-1.2 0.2-0.3 0.5-0.3 0.6-0.1 0.1 0.1 1.8 0.8 2.1 0.9 0.3 0.3 0.6 0.3 0.6 0.4C18.2 14.9 18.2 15.4 17.9 16.2z" fill="currentColor"></path>
</svg>
