<?xml version="1.0" encoding="UTF-8" ?>
<!DOCTYPE svg PUBLIC "-//W3C//DTD SVG 1.1//EN" "http://www.w3.org/Graphics/SVG/1.1/DTD/svg11.dtd">
<svg width="512pt" height="512pt" viewBox="0 0 512 512" version="1.1" xmlns="http://www.w3.org/2000/svg">
<g id="#000000ff">
<path fill="#000000" opacity="1.00" d=" M 177.45 0.00 L 181.53 0.00 C 207.51 0.58 233.34 9.05 254.12 24.75 C 276.14 41.01 292.55 64.73 299.89 91.12 C 307.13 116.70 305.94 144.61 296.42 169.44 C 286.48 195.85 267.19 218.58 242.83 232.81 C 222.19 245.05 197.90 250.97 173.94 249.80 C 149.82 248.84 126.06 240.54 106.53 226.36 C 85.95 211.53 70.04 190.31 61.71 166.35 C 52.37 139.85 52.38 110.17 61.73 83.68 C 71.24 56.28 90.71 32.50 115.65 17.72 C 134.21 6.45 155.80 0.63 177.45 0.00 M 168.92 42.16 C 168.90 46.92 168.91 51.68 168.91 56.43 C 154.42 58.31 138.85 62.37 129.02 73.97 C 121.66 82.67 119.61 94.81 121.46 105.82 C 123.00 116.14 130.64 124.69 139.75 129.28 C 148.75 134.12 159.06 135.10 168.90 137.21 C 168.93 147.30 168.90 157.40 168.91 167.49 C 153.45 167.22 138.09 164.45 123.54 159.23 C 123.53 168.25 123.53 177.28 123.54 186.30 C 137.87 192.25 153.55 193.57 168.89 194.33 C 168.92 198.85 168.91 203.38 168.91 207.90 C 176.24 207.91 183.57 207.90 190.90 207.91 C 190.90 203.17 190.93 198.44 190.87 193.71 C 204.34 191.84 218.66 188.47 228.63 178.58 C 237.54 170.02 239.77 156.61 237.73 144.85 C 236.03 134.39 228.10 125.84 218.83 121.25 C 210.16 116.64 200.26 115.65 190.87 113.34 C 190.96 103.13 190.87 92.91 190.91 82.70 C 204.42 83.43 217.70 86.38 230.57 90.44 C 230.63 81.33 230.54 72.23 230.62 63.13 C 217.84 58.72 204.34 56.94 190.91 56.00 C 190.90 51.38 190.91 46.77 190.90 42.15 C 183.57 42.16 176.24 42.15 168.92 42.16 Z" />
<path fill="#000000" opacity="1.00" d=" M 154.97 87.94 C 158.84 84.63 164.17 84.43 168.92 83.39 C 168.90 92.25 168.91 101.10 168.91 109.95 C 163.92 108.75 158.70 107.59 154.53 104.42 C 149.68 100.33 150.04 91.84 154.97 87.94 Z" />
<path fill="#000000" opacity="1.00" d=" M 344.47 89.97 C 381.50 91.30 418.53 92.58 455.55 93.96 C 445.38 104.17 435.28 114.45 424.96 124.50 C 431.26 131.35 438.29 137.51 444.38 144.56 C 461.45 162.74 473.82 186.71 473.83 212.05 C 472.84 236.32 460.74 258.18 448.26 278.36 C 447.09 253.40 437.55 228.17 419.05 210.92 C 405.67 197.55 392.27 184.20 378.93 170.80 C 368.62 180.76 358.68 191.09 348.43 201.10 C 347.13 164.06 345.78 127.02 344.47 89.97 Z" />
<path fill="#000000" opacity="1.00" d=" M 190.91 140.55 C 195.80 141.64 200.93 142.74 204.92 145.96 C 209.16 149.99 209.13 157.82 204.53 161.57 C 200.63 164.63 195.66 165.65 190.91 166.52 C 190.90 157.86 190.90 149.20 190.91 140.55 Z" />
<path fill="#000000" opacity="1.00" d=" M 39.51 289.78 C 43.23 269.97 53.35 252.22 63.74 235.22 C 64.91 259.55 73.88 284.24 91.61 301.39 C 105.46 315.22 119.30 329.07 133.15 342.90 C 143.31 332.83 153.32 322.61 163.55 312.61 C 164.91 349.64 166.20 386.66 167.53 423.68 C 130.49 422.37 93.44 421.05 56.40 419.71 C 66.60 409.46 76.85 399.25 87.05 389.00 C 74.76 376.58 61.64 364.60 52.61 349.47 C 41.89 331.82 35.26 310.44 39.51 289.78 Z" />
<path fill="#000000" opacity="1.00" d=" M 272.00 278.94 C 296.72 264.40 326.58 259.02 354.85 263.67 C 394.00 269.65 429.23 295.80 446.65 331.32 C 457.74 353.34 461.83 378.72 458.65 403.15 C 454.14 440.23 431.67 474.48 399.70 493.72 C 380.82 505.40 358.74 511.44 336.60 512.00 L 332.51 512.00 C 310.40 511.35 288.37 505.25 269.55 493.52 C 235.92 473.22 213.07 436.22 210.26 397.01 C 208.18 371.48 214.09 345.32 227.26 323.33 C 238.06 305.04 253.64 289.60 272.00 278.94 M 329.17 311.59 C 315.79 314.75 303.24 322.13 294.74 333.05 C 288.80 340.05 285.23 348.63 282.24 357.22 C 276.16 357.21 270.09 357.23 264.02 357.21 C 263.98 364.63 264.01 372.06 264.00 379.49 C 268.83 379.50 273.67 379.48 278.50 379.51 C 278.18 384.88 277.92 390.26 278.38 395.63 C 273.59 395.74 268.79 395.67 264.00 395.69 C 264.00 403.11 264.00 410.52 264.00 417.94 C 269.95 417.94 275.90 417.92 281.85 417.95 C 284.57 426.28 287.95 434.62 293.80 441.27 C 302.23 451.78 314.91 458.00 327.86 460.86 C 346.77 464.59 366.85 464.29 385.17 457.94 C 385.20 448.72 385.18 439.49 385.18 430.27 C 369.38 435.22 352.15 437.42 335.91 433.33 C 327.61 431.34 320.39 425.67 316.69 417.96 C 328.91 417.91 341.14 417.95 353.37 417.94 C 353.38 410.52 353.38 403.11 353.37 395.70 C 339.55 395.71 325.74 395.63 311.93 395.74 C 311.20 390.38 311.54 384.97 311.79 379.59 C 329.07 379.41 346.35 379.49 363.64 379.55 C 363.81 372.11 363.67 364.67 363.72 357.22 C 348.14 357.20 332.56 357.24 316.98 357.21 C 321.09 348.20 329.22 341.21 338.82 338.72 C 353.67 334.77 369.40 337.38 383.78 341.99 C 383.78 332.76 383.79 323.53 383.78 314.30 C 366.38 308.04 347.12 307.60 329.17 311.59 Z" />
</g>
</svg>
