<svg xmlns="http://www.w3.org/2000/svg" x="0" y="0" viewBox="0 0 1000 1000" xml:space="preserve">
    <path fill="#555d66" d="M838.071 0H161.928C72.496 0 0 72.495 0 161.928v676.143C0 927.504 72.496 1000 161.928 1000H838.07c89.433 0 161.929-72.496 161.929-161.929V161.928C999.999 72.495 927.503 0 838.071 0zM721.246 801.412c0 11.589-6.238 17.827-17.832 17.833H297.056c-11.588 0-17.833-6.244-17.833-17.833V696.188c0-11.594 6.246-17.833 17.833-17.833h406.358c11.588 0 17.832 6.239 17.832 17.833v105.224zM500.283 621.389c-126.023 0-226.131-92.06-226.131-213.619 0-121.554 99.824-213.347 225.848-213.347v127.544c-50.051 0-83.732 39.325-83.732 85.802s33.959 85.809 84.016 85.809c49.155 0 83.12-39.332 83.12-85.809l-.006-1.032h142.116l.006 1.032c-.001 121.561-100.11 213.62-225.237 213.62zm225.61-270.771H554.764V179.49h157.493c7.526.003 13.629 6.102 13.636 13.63v157.498z"/>
</svg>
