<?xml version="1.0" encoding="utf-8"?>
<!DOCTYPE svg PUBLIC "-//W3C//DTD SVG 1.1//EN" "http://www.w3.org/Graphics/SVG/1.1/DTD/svg11.dtd">
<svg version="1.1" xmlns="http://www.w3.org/2000/svg" xmlns:xlink="http://www.w3.org/1999/xlink" x="0px" y="0px" width="76px" height="64px" viewBox="0 0 76 64" enable-background="new 0 0 76 64" xml:space="preserve">
	<rect fill="#E0E4E9" width="76" height="64"/>
	<g>
		<path fill="#FCD440" d="M35.459,18.5c2.043,0,3.678,1.649,3.678,3.682c0,2.032-1.635,3.683-3.678,3.683 c-2.03,0-3.679-1.651-3.679-3.683C31.78,20.149,33.429,18.5,35.459,18.5z"/>
		<path fill="#39BF82" d="M21.102,43.504l7.264-9.078c0.501-0.613,1.424-0.613,1.925,0l7.265,9.078 c0.633,0.806,0.066,1.996-0.962,1.996H22.064C21.036,45.5,20.458,44.31,21.102,43.504z"/>
		<path fill="#3ECF8E" d="M31.78,45.5l11.284-15.784c0.481-0.685,1.505-0.685,1.986,0l9.887,13.84c0.58,0.813,0,1.942-0.987,1.942L31.78,45.5L31.78,45.5z"/>
	</g>
</svg>
