<svg xmlns="http://www.w3.org/2000/svg" viewBox="0 0 24 24" class="wpgb-home-escalator-icon">
  <circle cx="8" cy="3" r="2" fill="none" stroke="currentColor" stroke-linecap="round" stroke-miterlimit="10" stroke-linejoin="round"></circle>
  <path d="M10,13.4V10A2,2,0,0,0,8,8H8a2,2,0,0,0-2,2v7" fill="none" stroke="currentColor" stroke-miterlimit="10" data-cap="butt" stroke-linecap="round" stroke-linejoin="round"></path>
  <path d="M20,14a3,3,0,0,0,3-3.161A3.114,3.114,0,0,0,19.83,8H16.767a2,2,0,0,0-1.337.513L6,17H4.17A3.114,3.114,0,0,0,1,19.839,3,3,0,0,0,4,23H7.233a2,2,0,0,0,1.337-.513L18,14Z" fill="none" stroke="currentColor" stroke-linecap="round" stroke-miterlimit="10" stroke-linejoin="round"></path>
  <line x1="23" y1="18" x2="19" y2="22" fill="none" stroke="currentColor" stroke-miterlimit="10" data-cap="butt" stroke-linecap="round" stroke-linejoin="round"></line>
  <polyline points="23 22 23 18 19 18" fill="none" stroke="currentColor" stroke-linecap="round" stroke-miterlimit="10" stroke-linejoin="round"></polyline>
</svg>
