<svg xmlns="http://www.w3.org/2000/svg" viewBox="0 0 24 24" class="wpgb-home-heater-icon">
  <line fill="none" stroke="currentColor" stroke-linecap="round" stroke-miterlimit="10" x1="21" y1="12" x2="23" y2="12" stroke-linejoin="round"></line>
  <line fill="none" stroke="currentColor" stroke-linecap="round" stroke-miterlimit="10" x1="14" y1="12" x2="17" y2="12" stroke-linejoin="round"></line>
  <line fill="none" stroke="currentColor" stroke-linecap="round" stroke-miterlimit="10" x1="7" y1="12" x2="10" y2="12" stroke-linejoin="round"></line>
  <line fill="none" stroke="currentColor" stroke-linecap="round" stroke-miterlimit="10" x1="14" y1="20" x2="17" y2="20" stroke-linejoin="round"></line>
  <line fill="none" stroke="currentColor" stroke-linecap="round" stroke-miterlimit="10" x1="7" y1="20" x2="10" y2="20" stroke-linejoin="round"></line>
  <path fill="none" stroke="currentColor" stroke-linecap="round" stroke-miterlimit="10" d="M5,23L5,23  c-1.1,0-2-0.9-2-2V11c0-1.1,0.9-2,2-2l0,0c1.1,0,2,0.9,2,2v10C7,22.1,6.1,23,5,23z" stroke-linejoin="round"></path>
  <path fill="none" stroke="currentColor" stroke-linecap="round" stroke-miterlimit="10" d="M12,23L12,23  c-1.1,0-2-0.9-2-2V11c0-1.1,0.9-2,2-2l0,0c1.1,0,2,0.9,2,2v10C14,22.1,13.1,23,12,23z" stroke-linejoin="round"></path>
  <path fill="none" stroke="currentColor" stroke-linecap="round" stroke-miterlimit="10" d="M19,23L19,23  c-1.1,0-2-0.9-2-2V11c0-1.1,0.9-2,2-2l0,0c1.1,0,2,0.9,2,2v10C21,22.1,20.1,23,19,23z" stroke-linejoin="round"></path>
  <line fill="none" stroke="currentColor" stroke-linecap="round" stroke-miterlimit="10" x1="12" y1="5" x2="12" y2="1" stroke-linejoin="round"></line>
  <line fill="none" stroke="currentColor" stroke-linecap="round" stroke-miterlimit="10" x1="7" y1="6" x2="7" y2="4" stroke-linejoin="round"></line>
  <line fill="none" stroke="currentColor" stroke-linecap="round" stroke-miterlimit="10" x1="17" y1="6" x2="17" y2="4" stroke-linejoin="round"></line>
</svg>
