<svg xmlns="http://www.w3.org/2000/svg" viewBox="0 0 24 24" id="wpgb-icon">
  <path fill="none" stroke="currentColor" stroke-linecap="round" stroke-miterlimit="10" d="M11,6l2.5-2.5 c1.9-1.9,5.1-1.9,7,0l0,0c1.9,1.9,1.9,5.1,0,7L18,13" stroke-linejoin="round"></path>
  <path fill="none" stroke="currentColor" stroke-linecap="round" stroke-miterlimit="10" d="M13,18l-2.5,2.5 c-1.9,1.9-5.1,1.9-7,0l0,0c-1.9-1.9-1.9-5.1,0-7L6,11" stroke-linejoin="round"></path>
  <line fill="none" stroke="currentColor" stroke-linecap="round" stroke-miterlimit="10" x1="9" y1="15" x2="15" y2="9" stroke-linejoin="round"></line>
  <line fill="none" stroke="currentColor" stroke-linecap="round" stroke-miterlimit="10" x1="20" y1="17" x2="22" y2="18" stroke-linejoin="round"></line>
  <line fill="none" stroke="currentColor" stroke-linecap="round" stroke-miterlimit="10" x1="17" y1="20" x2="18" y2="22" stroke-linejoin="round"></line>
  <line fill="none" stroke="currentColor" stroke-linecap="round" stroke-miterlimit="10" x1="7" y1="4" x2="6" y2="2" stroke-linejoin="round"></line>
  <line fill="none" stroke="currentColor" stroke-linecap="round" stroke-miterlimit="10" x1="4" y1="7" x2="2" y2="6" stroke-linejoin="round"></line>
</svg>
