<svg xmlns="http://www.w3.org/2000/svg" viewBox="0 0 24 24" id="wpgb-icon">
  <path fill="currentColor" d="M9.4 20.111c-2.229 2.072-6.023 1.524-7.8-.67C-.503 16.85-.923 11.939 2.741 7.546c1.817-2.178 4.007-3.831 6.568-4.955l1.181 1.901c-3.643 1.765-6.365 4.158-6.751 8.17 1.644 0 3.007-.06 4.222.375 1.382.495 2.222 1.413 2.567 2.465.547 1.65.282 3.3-1.128 4.609zm13.207 0c-2.228 2.072-6.022 1.524-7.8-.67-2.103-2.591-2.522-7.502 1.141-11.895 1.818-2.178 4.008-3.831 6.569-4.955l1.181 1.901c-3.642 1.765-6.365 4.158-6.75 8.17 1.642 0 3.006-.06 4.221.375 1.383.495 2.223 1.413 2.567 2.465.546 1.65.282 3.3-1.129 4.609z"></path>
</svg>
